<svg width="276" height="209" viewBox="0 0 276 209" fill="none" xmlns="http://www.w3.org/2000/svg">
<g clip-path="url(#clip0)">
<path d="M60.4534 148.681C60.4534 167.012 41.2778 175.783 41.2778 175.783C41.2778 175.783 21.9055 167.012 21.5122 148.681C21.281 137.906 30.2295 129.167 40.9828 129.167C43.5397 129.167 46.0716 129.672 48.4339 130.653C50.7961 131.633 52.9426 133.071 54.7506 134.883C56.5586 136.695 57.9928 138.846 58.9713 141.213C59.9498 143.581 60.4534 146.118 60.4534 148.681Z" fill="#6B6D9A"/>
<path d="M47.7669 176.867H34.7864L33.2129 170.559H49.3401L47.7669 176.867Z" fill="#3E407B"/>
<path d="M47.3239 187.654H35.2285V193.971H47.3239V187.654Z" fill="white"/>
<path d="M47.4229 194.069H35.1309V187.555H47.4229V194.069ZM35.3275 193.872H47.2263V187.752H35.3275V193.872Z" fill="#6B6D9A"/>
<path d="M43.7563 177.611H38.7976L38.2285 176.714H44.3253L43.7563 177.611Z" fill="#3E407B"/>
<path d="M35.0814 176.867H34.8848V186.525H35.0814V176.867Z" fill="#6B6D9A"/>
<path d="M47.6693 176.867H47.4727V186.525H47.6693V176.867Z" fill="#6B6D9A"/>
<path d="M43.247 170.453L43.127 170.297C48.8087 165.905 55.5815 158.383 55.5815 147.481C55.586 143.663 54.4656 139.929 52.3608 136.746C50.2559 133.564 47.2604 131.075 43.7498 129.592L43.8264 129.411C47.3726 130.909 50.3986 133.423 52.5248 136.637C54.651 139.852 55.7828 143.624 55.7782 147.481C55.7782 158.463 48.9637 166.035 43.247 170.453Z" fill="#5C5E8A"/>
<path d="M36.9541 170.453L36.834 170.297C42.5157 165.905 49.2886 158.383 49.2886 147.481C49.2901 143.689 48.1832 139.979 46.1044 136.81C44.0257 133.641 41.0662 131.152 37.5916 129.65L37.6696 129.469C41.1794 130.986 44.1689 133.501 46.2688 136.702C48.3686 139.903 49.4868 143.65 49.4853 147.481C49.4853 158.463 42.6708 166.035 36.9541 170.453Z" fill="#5C5E8A"/>
<path d="M45.0077 170.453C39.2911 166.035 32.4766 158.463 32.4766 147.481C32.475 143.65 33.5932 139.903 35.6931 136.702C37.793 133.501 40.7825 130.986 44.2924 129.469L44.3704 129.65C40.8958 131.152 37.9362 133.641 35.8575 136.81C33.7787 139.979 32.6717 143.689 32.6732 147.481C32.6732 158.383 39.4461 165.905 45.1278 170.297L45.0077 170.453Z" fill="#5C5E8A"/>
<path d="M38.7148 170.453C32.9981 166.034 26.1836 158.463 26.1836 147.481C26.1772 143.609 27.3169 139.822 29.4586 136.599C31.6003 133.377 34.6477 130.863 38.2152 129.377L38.2911 129.559C34.7594 131.03 31.7426 133.518 29.6224 136.709C27.5022 139.899 26.3739 143.648 26.3803 147.481C26.3803 158.383 33.1532 165.905 38.8349 170.296L38.7148 170.453Z" fill="#5C5E8A"/>
<path d="M41.0814 129.167H40.8848V170.559H41.0814V129.167Z" fill="#5C5E8A"/>
<path d="M38.7646 186.221L35.1582 189.836L35.2972 189.975L38.9037 186.361L38.7646 186.221Z" fill="#6B6D9A"/>
<path d="M40.5172 186.161L35.1562 191.812L35.2988 191.948L40.6597 186.297L40.5172 186.161Z" fill="#6B6D9A"/>
<path d="M48.4575 186.229H33.707V188.003H48.4575V186.229Z" fill="white"/>
<path d="M48.5546 188.102H33.6074V186.131H48.5546V188.102ZM33.8041 187.905H48.3579V186.328H33.8041V187.905Z" fill="#6B6D9A"/>
<path d="M97.5632 102.225C97.5632 114.324 84.9065 120.113 84.9065 120.113C84.9065 120.113 72.1199 114.324 71.8603 102.225C71.7077 95.1133 77.6141 89.3452 84.7118 89.3452C88.1202 89.3452 91.389 90.7022 93.7991 93.1176C96.2092 95.533 97.5632 98.809 97.5632 102.225Z" fill="#6B6D9A"/>
<path d="M89.1901 120.829H80.6223L79.584 116.666H90.2287L89.1901 120.829Z" fill="#3E407B"/>
<path d="M88.8976 127.949H80.9141V132.118H88.8976V127.949Z" fill="white"/>
<path d="M88.9629 132.183H80.8496V127.883H88.9629V132.183ZM80.9794 132.053H88.8331V128.013H80.9794V132.053Z" fill="#6B6D9A"/>
<path d="M86.5432 121.32H83.2701L82.8945 120.728H86.9187L86.5432 121.32Z" fill="#3E407B"/>
<path d="M80.8173 120.829H80.6875V127.204H80.8173V120.829Z" fill="#6B6D9A"/>
<path d="M89.1259 120.829H88.9961V127.204H89.1259V120.829Z" fill="#6B6D9A"/>
<path d="M86.2101 116.595L86.1309 116.492C89.881 113.594 94.3514 108.629 94.3514 101.433C94.3544 98.913 93.6149 96.4481 92.2256 94.3475C90.8363 92.247 88.8591 90.6042 86.5419 89.6254L86.5925 89.5056C88.9332 90.4944 90.9305 92.1537 92.3338 94.2756C93.7372 96.3975 94.4843 98.8874 94.4812 101.433C94.4812 108.681 89.9834 113.679 86.2101 116.595Z" fill="#5C5E8A"/>
<path d="M82.0519 116.595L81.9727 116.492C85.7229 113.594 90.1933 108.628 90.1933 101.433C90.1943 98.9298 89.4636 96.4812 88.0916 94.3895C86.7195 92.2979 84.7661 90.6548 82.4727 89.6634L82.5242 89.5439C84.8409 90.5455 86.814 92.2052 88.2 94.318C89.586 96.4309 90.3241 98.9044 90.3231 101.433C90.3231 108.681 85.8252 113.679 82.0519 116.595Z" fill="#5C5E8A"/>
<path d="M87.3688 116.595C83.5955 113.679 79.0977 108.681 79.0977 101.433C79.0966 98.9044 79.8347 96.4309 81.2207 94.318C82.6067 92.2051 84.58 90.5454 86.8967 89.5439L86.9481 89.6634C84.6547 90.6548 82.7013 92.2978 81.3292 94.3895C79.9571 96.4811 79.2264 98.9298 79.2274 101.433C79.2274 108.628 83.6979 113.594 87.448 116.492L87.3688 116.595Z" fill="#5C5E8A"/>
<path d="M83.2165 116.595C79.4432 113.679 74.9453 108.681 74.9453 101.433C74.9411 98.8771 75.6934 96.3776 77.107 94.2505C78.5206 92.1233 80.532 90.4643 82.8867 89.4832L82.9368 89.6032C80.6057 90.5745 78.6145 92.2169 77.2151 94.3226C75.8157 96.4283 75.0709 98.9028 75.0751 101.433C75.0751 108.628 79.5455 113.594 83.2957 116.492L83.2165 116.595Z" fill="#5C5E8A"/>
<path d="M84.7763 89.3452H84.6465V116.666H84.7763V89.3452Z" fill="#5C5E8A"/>
<path d="M83.2495 127.003L80.8691 129.389L80.9609 129.481L83.3413 127.095L83.2495 127.003Z" fill="#6B6D9A"/>
<path d="M84.4056 126.964L80.8672 130.693L80.9612 130.783L84.4997 127.053L84.4056 126.964Z" fill="#6B6D9A"/>
<path d="M89.6442 127.009H79.9082V128.179H89.6442V127.009Z" fill="white"/>
<path d="M89.7095 128.244H79.8438V126.943H89.7095V128.244ZM79.9736 128.114H89.5797V127.074H79.9736V128.114Z" fill="#6B6D9A"/>
<path d="M166.565 205.578H165.503L164.998 201.475H166.565V205.578Z" fill="#9F616A"/>
<path d="M166.837 206.61H163.414V206.566C163.414 206.212 163.555 205.873 163.805 205.623C164.054 205.372 164.393 205.231 164.746 205.231H166.837V206.61Z" fill="#272D35"/>
<path d="M180.252 203.563L179.342 204.111L176.801 200.854L178.144 200.045L180.252 203.563Z" fill="#9F616A"/>
<path d="M178.083 206.073L178.061 206.036C177.879 205.733 177.825 205.369 177.911 205.026C177.996 204.682 178.214 204.387 178.517 204.204L180.309 203.125L181.017 204.307L178.083 206.073Z" fill="#272D35"/>
<path d="M166.842 204.732L166.823 204.732C166.307 204.73 165.791 204.7 165.278 204.643C165.082 204.623 164.87 204.602 164.614 204.581L164.606 204.579C164.431 204.528 164.426 202.888 164.5 197.277C164.538 194.403 164.581 191.145 164.53 189.07L164.529 189.05L164.545 189.037C165.468 188.225 166.57 187.645 167.76 187.342C168.95 187.039 170.195 187.023 171.392 187.294L171.411 187.298L171.421 187.315C172.464 189.084 174.039 191.632 175.562 194.096C179.059 199.754 180.059 201.417 179.95 201.543L179.937 201.553C179.698 201.673 179.519 201.765 179.366 201.843C178.763 202.156 178.143 202.437 177.509 202.683L177.481 202.694L177.461 202.672C173.913 198.775 170.96 194.422 169.134 190.399C168.92 191.772 168.661 193.566 168.387 195.461C167.6 200.911 167.068 204.5 166.854 204.719L166.842 204.732Z" fill="#272D35"/>
<path d="M234.68 62.8381C234.68 121.868 172.93 150.113 172.93 150.113C172.93 150.113 110.546 121.868 109.28 62.8381C108.535 28.1416 137.352 0 171.98 0C206.608 0 234.68 28.1336 234.68 62.8381Z" fill="#6B6D9A"/>
<path d="M174.255 205.115H172.953L172.334 200.083H174.255V205.115Z" fill="#FFB7B7"/>
<path d="M172.022 204.742H174.532V206.326H170.441C170.441 206.118 170.482 205.912 170.562 205.72C170.641 205.528 170.758 205.353 170.904 205.206C171.051 205.059 171.225 204.942 171.417 204.863C171.609 204.783 171.814 204.742 172.022 204.742Z" fill="#272D35"/>
<path d="M179.136 205.115H177.834L177.215 200.083H179.136L179.136 205.115Z" fill="#FFB7B7"/>
<path d="M176.907 204.742H179.417V206.326H175.326C175.326 205.906 175.493 205.503 175.789 205.206C176.085 204.909 176.487 204.742 176.907 204.742Z" fill="#272D35"/>
<path d="M174.193 202.58L172.76 202.511C172.638 202.505 172.523 202.453 172.438 202.365C172.354 202.276 172.306 202.159 172.305 202.036L172.205 187.507C172.205 187.438 172.219 187.369 172.247 187.306C172.276 187.244 172.317 187.188 172.369 187.142C172.421 187.097 172.482 187.063 172.548 187.044C172.614 187.024 172.683 187.019 172.751 187.029L178.484 187.863C178.597 187.879 178.701 187.936 178.776 188.022C178.851 188.108 178.893 188.219 178.893 188.334L179.63 201.797C179.631 201.86 179.619 201.923 179.595 201.981C179.571 202.04 179.536 202.093 179.492 202.138C179.447 202.183 179.394 202.218 179.336 202.243C179.278 202.267 179.216 202.279 179.152 202.279H177.608C177.494 202.28 177.383 202.239 177.297 202.165C177.21 202.091 177.153 201.988 177.136 201.875C177.136 201.875 175.969 191.776 175.809 191.782C175.648 191.785 174.69 202.158 174.69 202.158C174.676 202.275 174.62 202.382 174.532 202.459C174.445 202.537 174.332 202.58 174.216 202.58C174.208 202.58 174.201 202.58 174.193 202.58Z" fill="#272D35"/>
<path d="M193.83 153.604H152.03L146.963 133.293H198.896L193.83 153.604Z" fill="#272D35"/>
<path d="M192.403 188.34H153.453V208.683H192.403V188.34Z" fill="white"/>
<path d="M192.722 209H153.139V188.023H192.722V209ZM153.772 208.365H192.089V188.657H153.772V208.365Z" fill="#272D35"/>
<path d="M180.914 155.999H164.946L163.113 153.113H182.747L180.914 155.999Z" fill="#272D35"/>
<path d="M152.979 153.604H152.346V184.706H152.979V153.604Z" fill="#272D35"/>
<path d="M193.512 153.604H192.879V184.706H193.512V153.604Z" fill="#272D35"/>
<path d="M179.277 132.949L178.891 132.446C197.187 118.306 218.997 94.0807 218.997 58.9754C219.012 46.6802 215.404 34.6543 208.626 24.406C201.848 14.1577 192.201 6.14326 180.896 1.36772L181.143 0.783203C192.563 5.6072 202.307 13.703 209.154 24.0553C216.001 34.4075 219.645 46.5554 219.631 58.9754C219.631 94.3385 197.686 118.721 179.277 132.949Z" fill="#5C5E8A"/>
<path d="M159.012 132.949L158.625 132.447C176.922 118.306 198.732 94.0809 198.732 58.9755C198.737 46.7629 195.172 34.8164 188.478 24.6116C181.784 14.4068 172.254 6.39077 161.065 1.55361L161.316 0.970947C172.618 5.85719 182.245 13.9546 189.007 24.2629C195.769 34.5713 199.37 46.639 199.365 58.9755C199.365 94.3388 177.421 118.722 159.012 132.949Z" fill="#5C5E8A"/>
<path d="M184.949 132.949C166.54 118.722 144.596 94.3389 144.596 58.9756C144.591 46.639 148.192 34.5712 154.954 24.2628C161.716 13.9545 171.343 5.85709 182.646 0.970947L182.897 1.55361C171.708 6.39068 162.177 14.4067 155.483 24.6116C148.789 34.8164 145.224 46.763 145.229 58.9756C145.229 94.0809 167.039 118.306 185.336 132.446L184.949 132.949Z" fill="#5C5E8A"/>
<path d="M164.684 132.949C146.274 118.722 124.33 94.339 124.33 58.9755C124.309 46.5066 127.98 34.3117 134.877 23.9339C141.773 13.5561 151.587 5.46176 163.075 0.675049L163.319 1.26081C151.946 5.9994 142.231 14.0124 135.404 24.286C128.576 34.5595 124.943 46.6319 124.963 58.9755C124.963 94.0811 146.774 118.306 165.07 132.446L164.684 132.949Z" fill="#5C5E8A"/>
<path d="M172.295 0H171.662V133.293H172.295V0Z" fill="#5C5E8A"/>
<path d="M164.844 183.728L153.23 195.367L153.678 195.816L165.292 184.177L164.844 183.728Z" fill="#272D35"/>
<path d="M170.49 183.534L153.227 201.731L153.685 202.168L170.949 183.971L170.49 183.534Z" fill="#272D35"/>
<path d="M196.047 183.754H148.547V189.466H196.047V183.754Z" fill="white"/>
<path d="M196.362 189.784H148.229V183.437H196.362V189.784ZM148.862 189.149H195.729V184.071H148.862V189.149Z" fill="#272D35"/>
</g>
<defs>
<clipPath id="clip0">
<rect width="274.098" height="209" fill="white" transform="translate(0.951172)"/>
</clipPath>
</defs>
</svg>
