<svg width="14" height="14" viewBox="0 0 14 14" fill="none" xmlns="http://www.w3.org/2000/svg">
<path fill-rule="evenodd" clip-rule="evenodd" d="M7 0C10.866 0 14 3.13401 14 7C14 10.866 10.866 14 7 14C3.13401 14 0 10.866 0 7C0 3.13401 3.13401 0 7 0ZM9.74864 9.16994C9.05225 10.0619 8.15271 10.4968 7.0001 10.4968C5.84749 10.4968 4.94795 10.0619 4.25155 9.16994C4.05329 8.91601 3.68671 8.87088 3.43277 9.06915C3.17884 9.26741 3.13371 9.63399 3.33198 9.88792C4.25042 11.0642 5.48977 11.6635 7.0001 11.6635C8.51043 11.6635 9.74977 11.0642 10.6682 9.88792C10.8665 9.63399 10.8214 9.26741 10.5674 9.06915C10.3135 8.87088 9.94691 8.91601 9.74864 9.16994ZM4.6666 4.6667C4.18335 4.6667 3.7916 5.18904 3.7916 5.83337C3.7916 6.4777 4.18335 7.00004 4.6666 7.00004C5.14984 7.00004 5.5416 6.4777 5.5416 5.83337C5.5416 5.18904 5.14984 4.6667 4.6666 4.6667ZM9.3334 4.6667C8.85016 4.6667 8.4584 5.18904 8.4584 5.83337C8.4584 6.4777 8.85016 7.00004 9.3334 7.00004C9.81665 7.00004 10.2084 6.4777 10.2084 5.83337C10.2084 5.18904 9.81665 4.6667 9.3334 4.6667Z" fill="#D6DCE4"/>
</svg>
