<svg width="30" height="30" viewBox="0 0 30 30" fill="none" xmlns="http://www.w3.org/2000/svg">
<path d="M12.5 29.8333C5.41667 28.5833 0 22.4167 0 15C0 6.75 6.75 0 15 0C23.25 0 30 6.75 30 15C30 22.4167 24.5833 28.5833 17.5 29.8333L16.6667 29.1667H13.3333L12.5 29.8333Z" fill="url(#paint0_linear)"/>
<path d="M20.8333 19.1668L21.5 15.0002H17.5V12.0835C17.5 10.9168 17.9167 10.0002 19.75 10.0002H21.6667V6.16683C20.5833 6.00016 19.4167 5.8335 18.3333 5.8335C14.9167 5.8335 12.5 7.91683 12.5 11.6668V15.0002H8.75V19.1668H12.5V29.7502C13.3333 29.9168 14.1667 30.0002 15 30.0002C15.8333 30.0002 16.6667 29.9168 17.5 29.7502V19.1668H20.8333Z" fill="white"/>
<defs>
<linearGradient id="paint0_linear" x1="15" y1="28.9617" x2="15" y2="0" gradientUnits="userSpaceOnUse">
<stop stop-color="#0062E0"/>
<stop offset="1" stop-color="#19AFFF"/>
</linearGradient>
</defs>
</svg>
