<svg width="32" height="32" viewBox="0 0 32 32" fill="none" xmlns="http://www.w3.org/2000/svg">
<g opacity="0.7">
<path d="M28.2702 2.78495H21.1902L20.6352 1.68495C20.5185 1.44911 20.3383 1.25061 20.1147 1.11189C19.8912 0.973161 19.6333 0.899749 19.3702 0.899952H12.6252C12.3623 0.897733 12.1042 0.970371 11.8811 1.10938C11.658 1.24838 11.479 1.44802 11.3652 1.68495L10.8102 2.78495H3.73016C3.47953 2.78495 3.23916 2.88451 3.06194 3.06174C2.88472 3.23896 2.78516 3.47932 2.78516 3.72995V5.61995C2.78648 5.86971 2.88662 6.1088 3.0637 6.28494C3.24078 6.46108 3.48039 6.55996 3.73016 6.55995H28.2702C28.5199 6.55996 28.7595 6.46108 28.9366 6.28494C29.1137 6.1088 29.2138 5.86971 29.2152 5.61995V3.72995C29.2152 3.47932 29.1156 3.23896 28.9384 3.06174C28.7612 2.88451 28.5208 2.78495 28.2702 2.78495Z" fill="#272D35"/>
<path d="M4.67578 8.44995L5.92578 28.4499C5.97155 29.168 6.28911 29.8417 6.81389 30.334C7.33867 30.8262 8.03125 31.1001 8.75078 31.0999H23.2508C23.9711 31.1001 24.6644 30.8255 25.1893 30.3321C25.7142 29.8388 26.0312 29.1639 26.0758 28.4449L27.3258 8.44495L4.67578 8.44995ZM13.2058 26.3899C13.1967 26.7892 13.0323 27.1693 12.7476 27.4493C12.4628 27.7294 12.0802 27.8874 11.6808 27.8899C11.2805 27.8887 10.8966 27.7313 10.6108 27.4511C10.325 27.1709 10.1599 26.7901 10.1508 26.3899V13.1649C10.1521 12.7596 10.3137 12.3712 10.6004 12.0845C10.887 11.7979 11.2754 11.6363 11.6808 11.6349C12.0853 11.6376 12.4724 11.7998 12.758 12.0863C13.0435 12.3728 13.2045 12.7604 13.2058 13.1649V26.3899ZM21.8508 26.3899C21.8417 26.7901 21.6766 27.1709 21.3908 27.4511C21.105 27.7313 20.721 27.8887 20.3208 27.8899C19.9258 27.881 19.5494 27.7201 19.27 27.4407C18.9906 27.1614 18.8297 26.785 18.8208 26.3899V13.1649C18.822 12.7647 18.9795 12.3807 19.2597 12.0949C19.5399 11.8091 19.9206 11.6441 20.3208 11.6349C20.7262 11.6363 21.1146 11.7979 21.4012 12.0845C21.6878 12.3712 21.8495 12.7596 21.8508 13.1649V26.3899Z" fill="#272D35"/>
</g>
</svg>
