<svg width="17" height="17" viewBox="0 0 17 17" fill="none" xmlns="http://www.w3.org/2000/svg">
<path fill-rule="evenodd" clip-rule="evenodd" d="M10.0823 1.24413C9.67959 -0.414708 7.32042 -0.414709 6.9177 1.24413C6.65756 2.31571 5.42985 2.82424 4.48817 2.25047C3.03044 1.36226 1.36226 3.03044 2.25047 4.48817C2.82424 5.42985 2.31571 6.65756 1.24413 6.9177C-0.414709 7.32041 -0.414708 9.67959 1.24413 10.0823C2.31571 10.3424 2.82424 11.5701 2.25047 12.5118C1.36226 13.9696 3.03044 15.6377 4.48818 14.7495C5.42985 14.1758 6.65756 14.6843 6.9177 15.7559C7.32042 17.4147 9.67959 17.4147 10.0823 15.7559C10.3424 14.6843 11.5701 14.1758 12.5118 14.7495C13.9696 15.6377 15.6377 13.9696 14.7495 12.5118C14.1758 11.5701 14.6843 10.3424 15.7559 10.0823C17.4147 9.67959 17.4147 7.32041 15.7559 6.9177C14.6843 6.65756 14.1758 5.42985 14.7495 4.48817C15.6377 3.03044 13.9696 1.36226 12.5118 2.25047C11.5701 2.82424 10.3424 2.31571 10.0823 1.24413ZM8.5 11.6875C10.2604 11.6875 11.6875 10.2604 11.6875 8.5C11.6875 6.73959 10.2604 5.3125 8.5 5.3125C6.73959 5.3125 5.3125 6.73959 5.3125 8.5C5.3125 10.2604 6.73959 11.6875 8.5 11.6875Z" fill="#272D35"/>
</svg>
