<svg width="30" height="31" viewBox="0 0 30 31" fill="none" xmlns="http://www.w3.org/2000/svg">
<g clip-path="url(#clip0)">
<path d="M29.9857 15.6385C29.9857 14.3806 29.8836 13.4627 29.6627 12.5107H15.2988V18.1882H23.7301C23.5602 19.5992 22.6423 21.724 20.6024 23.1518L20.5738 23.3419L25.1154 26.8602L25.43 26.8916C28.3198 24.2228 29.9857 20.2961 29.9857 15.6385Z" fill="#4285F4"/>
<path d="M15.2998 30.5978C19.4304 30.5978 22.8981 29.2378 25.431 26.8921L20.6034 23.1522C19.3115 24.0532 17.5776 24.6821 15.2998 24.6821C11.2541 24.6821 7.82043 22.0134 6.59641 18.3247L6.41699 18.3399L1.69457 21.9947L1.63281 22.1663C4.14859 27.1639 9.31621 30.5978 15.2998 30.5978Z" fill="#34A853"/>
<path d="M6.59543 18.3247C6.27246 17.3728 6.08555 16.3528 6.08555 15.2989C6.08555 14.2449 6.27246 13.225 6.57844 12.2731L6.56988 12.0704L1.78828 8.35693L1.63184 8.43135C0.594961 10.5052 0 12.8341 0 15.2989C0 17.7637 0.594961 20.0924 1.63184 22.1663L6.59543 18.3247Z" fill="#FBBC05"/>
<path d="M15.2998 5.91551C18.1725 5.91551 20.1104 7.15641 21.2153 8.1934L25.533 3.9777C22.8813 1.51289 19.4304 0 15.2998 0C9.31621 0 4.14859 3.43371 1.63281 8.43129L6.57941 12.273C7.82043 8.58434 11.2541 5.91551 15.2998 5.91551Z" fill="#EB4335"/>
</g>
<defs>
<clipPath id="clip0">
<rect width="30" height="30.7031" fill="white"/>
</clipPath>
</defs>
</svg>
