<svg width="40" height="40" viewBox="0 0 40 40" fill="none" xmlns="http://www.w3.org/2000/svg">
<path fill-rule="evenodd" clip-rule="evenodd" d="M20.0004 0C30.9438 0 39.8152 8.8714 39.8152 19.8148C39.8152 30.7582 30.9438 39.6296 20.0004 39.6296C9.05694 39.6296 0.185547 30.7582 0.185547 19.8148C0.185547 8.8714 9.05694 0 20.0004 0ZM15.8111 2.01741C6.32925 4.20852 0.290732 13.3956 2.06295 22.9322C3.18147 28.9522 6.4174 33.3296 11.6993 35.9848C10.6407 35.2441 9.7137 34.3785 8.92518 33.3937C6.7137 30.6293 5.56184 27.8244 5.40444 24.8193C5.20592 21.013 6.32407 17.5622 8.72777 14.5626C11.0111 11.7133 13.8848 10.0833 17.2685 9.71741C19.8933 9.4337 22.4196 10.0044 24.7822 11.4144C28.3189 13.5244 30.157 17.4789 29.4659 21.4889C29.033 24.0004 27.5781 26.2867 25.4752 27.7615C23.3741 29.2344 20.7774 29.7878 18.1648 29.3207C13.3133 28.4537 9.93333 24.1189 10.3022 19.2374C10.557 15.8674 12.0674 13.3178 14.8004 11.6352C10.0993 13.6222 7.38073 17.4 6.71999 22.8656C6.44333 25.1574 6.92444 27.5081 8.14999 29.8526C9.80036 33.01 12.0652 35.1415 15.0733 36.3685C16.7504 37.0526 18.6004 37.4874 20.7289 37.6974L20.9778 37.7226C21.6696 37.7933 22.3855 37.867 23.0385 37.7574C27.0348 37.0885 30.45 35.2767 33.1896 32.3733C37.117 28.2104 38.7752 23.2081 38.1174 17.5052C37.62 13.1922 35.7589 9.51111 32.5863 6.56482C27.7663 2.08889 22.123 0.559259 15.8111 2.01741ZM19.9511 11.4163C17.7841 11.4163 15.6455 12.2933 14.0611 13.8359C12.453 15.403 11.5574 17.5167 11.5396 19.7881C11.5222 22.0093 12.39 24.117 13.9826 25.7226C15.5726 27.3256 17.6659 28.2089 19.8763 28.2096H19.8796C22.1437 28.2096 24.2648 27.3396 25.8537 25.7596C27.4433 24.1793 28.3189 22.0685 28.3189 19.817C28.3189 15.2696 24.6318 11.5019 20.1 11.4178C20.0504 11.417 20.0007 11.4163 19.9511 11.4163Z" fill="#272D35"/>
</svg>
