<svg width="19" height="23" viewBox="0 0 19 23" fill="none" xmlns="http://www.w3.org/2000/svg">
<path d="M16.2175 17.1853C19.9275 13.2539 19.9275 6.87988 16.2175 2.94853C12.5076 -0.982842 6.49248 -0.982842 2.78249 2.94853C-0.927497 6.87988 -0.927497 13.2539 2.78249 17.1853L4.84675 19.3398L7.61912 22.1934L7.79939 22.3627C8.85087 23.2655 10.3906 23.2091 11.3812 22.1937L14.6874 18.7868L16.2175 17.1853ZM9.50002 14.375C7.25143 14.375 5.42858 12.4443 5.42858 10.0625C5.42858 7.68077 7.25143 5.74999 9.50002 5.74999C11.7487 5.74999 13.5715 7.68077 13.5715 10.0625C13.5715 12.4443 11.7487 14.375 9.50002 14.375Z" fill="white"/>
</svg>
