<svg width="12" height="12" viewBox="0 0 12 12" fill="none" xmlns="http://www.w3.org/2000/svg">
<path d="M11.4876 3.58057L8.41946 0.512388C7.57557 -0.331472 6.15299 -0.100617 5.61925 0.966801L4.07085 4.06366C4.01509 4.17518 3.91789 4.26041 3.80004 4.30112L1.15117 5.21617C0.596314 5.40786 0.433609 6.11422 0.848698 6.52933L2.8225 8.50315L5.09323e-05 11.3256L0 12H0.674409L3.49686 9.17747L5.47066 11.1513C5.88577 11.5664 6.59213 11.4037 6.78382 10.8488L7.69892 8.2C7.73961 8.08213 7.82487 7.98491 7.93632 7.92916L11.0332 6.38075C12.1006 5.847 12.3315 4.42443 11.4876 3.58057Z" fill="white"/>
</svg>
