<svg width="50" height="50" viewBox="0 0 50 50" fill="none" xmlns="http://www.w3.org/2000/svg">
<g opacity="0.7">
<path d="M22.1425 32.4482H13.457V39.8476H22.1425V32.4482Z" fill="#272D35"/>
<path d="M10.4707 24.7699L13.1834 28.4695H22.1428V21.0704H13.1834L10.4707 24.7699Z" fill="#272D35"/>
<path d="M39.5318 13.5346L36.8188 9.83508H27.8594V17.2345H36.8188L39.5318 13.5346Z" fill="#272D35"/>
<path d="M36.5448 21.1179H27.8594V28.517H36.5448V21.1179Z" fill="#272D35"/>
<path d="M27.8594 32.496V39.895H36.8188L39.5318 36.1955L36.8188 32.496H27.8594Z" fill="#272D35"/>
<path d="M25.0009 6.66858C24.0376 6.66858 23.2539 7.4523 23.2539 8.4153V43.3315H26.7475V8.4153C26.7475 7.4523 25.9639 6.66858 25.0009 6.66858Z" fill="#272D35"/>
<path d="M22.1425 9.7876H13.457V17.1867H22.1425V9.7876Z" fill="#272D35"/>
</g>
</svg>
