<svg width="34" height="34" viewBox="0 0 34 34" fill="none" xmlns="http://www.w3.org/2000/svg">
<g opacity="0.7">
<path d="M13.7285 17.02C12.8454 17.8229 10.4771 17.8229 9.95522 16.458C8.83126 17.5419 6.58332 17.2609 6.06148 15.8158C4.37553 16.2975 3.25156 14.1298 4.33539 12.6847C1.68604 11.922 2.68958 8.4297 4.01426 8.18885C4.25511 6.74375 5.37907 6.0212 6.82417 6.22191C6.86432 4.85709 8.22913 4.05426 9.47352 4.29511C10.4771 3.73312 11.601 3.77326 12.3637 4.69652C12.725 3.17114 14.13 2.28802 15.6553 2.56901C16.1772 1.24434 18.4251 0.602072 19.5089 1.6859C20.1512 0.642213 21.4759 0.722497 22.3189 1.52533C23.6837 0.80278 25.6506 1.60561 26.0119 3.17114C27.6577 3.45213 28.3 5.94091 27.6577 7.26559C27.7781 7.34587 27.8584 7.4663 27.9387 7.58672C29.2232 7.38601 30.7888 8.79097 30.3472 10.0354C31.5113 10.5171 31.712 12.5241 30.3873 13.2868C31.1099 14.7721 29.5042 16.1369 27.8986 15.5749C27.8183 16.739 26.0922 17.4214 25.2492 16.5383C24.8076 17.0602 23.483 17.2207 23.0013 16.4982C21.3153 17.1404 19.8301 19.3884 19.3484 21.0743C19.7498 20.9138 20.2716 20.6729 20.4723 20.2314C20.9942 20.4321 21.1548 21.0342 20.8738 21.4356C20.3118 21.3553 19.3082 22.5194 19.0674 22.961C18.7864 25.8512 20.0709 29.8252 21.0343 32.6351C17.9033 33.5985 15.5751 32.595 13.4074 32.876C15.6553 29.3837 15.7758 20.8335 13.7285 17.02ZM14.9729 16.2172C15.1736 16.458 15.6955 17.1806 16.0166 17.2207C16.7392 17.2207 17.0202 15.1735 17.1004 14.6115C16.8997 14.5714 16.7793 14.4911 16.6589 14.4108C16.5786 15.4144 15.8962 16.0165 14.9729 16.2172ZM18.666 14.4911C18.6258 15.0129 18.1441 17.6623 18.3047 17.863C18.3047 18.144 19.1878 17.7024 21.1146 16.0566C20.8738 15.8961 20.7533 15.5749 20.8336 15.3341C20.5125 15.2136 20.3921 14.8925 20.4723 14.5714C19.9505 14.5312 19.5491 14.4108 19.1878 14.2904C18.9871 14.3707 18.8265 14.4108 18.666 14.4911Z" fill="#272D35"/>
</g>
</svg>
