<svg width="10" height="14" viewBox="0 0 10 14" fill="none" xmlns="http://www.w3.org/2000/svg">
<path d="M1.10526 8.10526L8.47368 8.106C9.0479 8.106 9.5203 8.54464 9.57386 9.10486L9.57895 9.21126V10.6842C9.57821 13.2632 6.84084 14 4.78947 14C2.78369 14 0.121358 13.2956 0.0040158 10.8534L0 10.6842V9.21053C0 8.6363 0.43862 8.16392 0.99887 8.11035L1.10526 8.10526ZM4.78947 0C6.62053 0 8.10526 1.48474 8.10526 3.31579C8.10526 5.14684 6.62053 6.63158 4.78947 6.63158C2.95842 6.63158 1.47368 5.14684 1.47368 3.31579C1.47368 1.48474 2.95842 0 4.78947 0Z" fill="white"/>
</svg>
