<svg width="40" height="40" viewBox="0 0 40 40" fill="none" xmlns="http://www.w3.org/2000/svg">
<g opacity="0.7">
<path d="M31.9602 5.64004C30.9202 5.52004 30.0002 6.24004 29.8802 7.28004L28.8802 15.68C28.8402 16 28.6002 16.2 28.2802 16.2H28.2402C27.9202 16.2 27.6802 15.92 27.6802 15.6L28.1602 4.68004C28.2002 3.64004 27.4002 2.76004 26.3602 2.72004C25.3202 2.68004 24.4402 3.48004 24.4002 4.52004L23.9202 15.44C23.9202 15.76 23.6402 16 23.3202 16C23.0402 16 22.8002 15.76 22.7602 15.44L21.9602 2.76004C21.8802 1.72004 21.0002 0.960043 19.9602 1.00004C18.9202 1.08004 18.1602 1.96004 18.2002 3.00004L18.9602 15.16C19.0002 15.52 18.7202 15.8 18.3602 15.76H18.1602C17.8802 15.76 17.6802 15.56 17.6002 15.28L15.8802 5.32004C15.7202 4.28004 14.7202 3.64004 13.7202 3.80004C12.6802 3.96004 12.0002 4.96004 12.2002 5.96004C12.2002 5.96004 13.6802 14.08 13.9202 15.8C14.1602 17.52 14.2402 18.52 14.3202 20.08C14.3602 20.96 13.6402 21.52 12.7602 20.68C12.7602 20.68 11.1602 18.72 10.2402 17.76C9.3202 16.8 8.3202 16.48 7.3602 17.08C6.3202 17.72 6.0802 19.08 6.7602 20.04C6.7602 20.04 10.8002 26.68 13.3202 29.44C14.1202 30.32 15.0802 31.2 16.1602 31.64L16.6802 37.6C16.7602 38.4 17.4002 39 18.2002 39H26.4402C27.2402 39 27.9202 38.4 27.9602 37.6L28.4802 31.48C30.8802 30.4 31.0402 27.04 31.5202 23.56C32.1202 19.32 33.6002 7.72004 33.6002 7.72004C33.7202 6.68004 32.9602 5.76004 31.9602 5.64004ZM26.3202 25.12L22.9202 28.52C22.7602 28.68 22.4802 28.68 22.3202 28.52L18.9602 25.16C18.2802 24.48 18.0002 23.4 18.4402 22.52C19.2002 21.04 21.0402 20.84 22.0802 21.92L22.6002 22.44L23.0402 22C23.7202 21.32 24.8002 21.04 25.6802 21.48C27.2002 22.24 27.4002 24.04 26.3202 25.12Z" fill="#272D35"/>
</g>
</svg>
