<svg width="44" height="44" viewBox="0 0 44 44" fill="none" xmlns="http://www.w3.org/2000/svg">
<g opacity="0.7">
<path d="M38.632 36.652L31.812 16.896C31.68 16.544 31.372 16.324 30.976 16.324H27.588H25.696C26.972 15.268 27.808 13.596 27.764 11.792C27.676 8.80004 25.256 6.33604 22.264 6.20404C19.008 6.07204 16.324 8.66804 16.324 11.924C16.324 13.684 17.116 15.268 18.392 16.324H15.092H13.068C12.716 16.324 12.364 16.544 12.232 16.896L5.36802 36.652C5.14802 37.224 5.58802 37.84 6.20402 37.84H37.796C38.412 37.796 38.852 37.224 38.632 36.652ZM22 9.50404C23.32 9.50404 24.42 10.56 24.42 11.924C24.42 13.288 23.32 14.3 22 14.3C20.68 14.3 19.58 13.244 19.58 11.88C19.58 10.516 20.68 9.50404 22 9.50404Z" fill="#272D35"/>
</g>
</svg>
